<svg t="1601295241948" class="icon" viewBox="0 0 1024 1024" version="1.1" xmlns="http://www.w3.org/2000/svg" p-id="1196" width="20" height="20"><path d="M680.256 181.76a32 32 0 0 0 36.4352-52.6272 364.6464 364.6464 0 0 0-571.8336 275.1168A112.192 112.192 0 0 0 70.4 509.7984v111.0464a111.8016 111.8016 0 1 0 223.6032 0V509.7984A112.1536 112.1536 0 0 0 209.152 401.12 301.7792 301.7792 0 0 1 508.8 128.0704a299.0272 299.0272 0 0 1 171.456 53.6896zM230.0992 509.7984v111.0464a47.9168 47.9168 0 1 1-95.8272 0V509.7984a47.9168 47.9168 0 1 1 95.8272 0z m642.56-107.6736a365.2672 365.2672 0 0 0-54.7392-166.7456 32 32 0 1 0-54.08 34.112 301.0752 301.0752 0 0 1 44.7488 133.248 112.288 112.288 0 0 0-78.592 107.0656v111.04a112.2368 112.2368 0 0 0 59.0592 98.8096c-41.728 99.84-125.1968 163.4752-216.3776 163.4752a32.032 32.032 0 0 0 0 64.064c121.0496 0 230.3296-84.1024 280.0704-214.7904A112.1344 112.1344 0 0 0 953.6 620.8448V509.7984a112.1984 112.1984 0 0 0-80.928-107.6736z m17.0496 218.72a47.9168 47.9168 0 1 1-95.8272 0V509.7984a48 48 0 0 1 46.1632-47.9616c0.5952 0.032 1.152 0.1792 1.7536 0.1792s1.1584-0.1472 1.7472-0.1792a48 48 0 0 1 46.1632 47.9616v111.0464z" fill="#ffffff" p-id="1197"></path><path d="M568.8832 972.8H461.5296a57.6512 57.6512 0 1 1 0-115.296h107.3536a57.6512 57.6512 0 1 1 0 115.296z m0-51.7568z" fill="#ffffff" p-id="1198"></path></svg>