<svg t="1601795714642" class="icon" viewBox="0 0 1024 1024" version="1.1" xmlns="http://www.w3.org/2000/svg" p-id="1831" width="80" height="80"><path d="M969.216 578.56l-5.12-8.192c-6.656-8.192-13.312-18.432-19.968-26.624-3.584-3.584-5.12-6.656-8.192-10.24-3.584-5.12-8.192-10.24-11.776-14.848-3.584-3.584-6.656-8.192-10.24-11.776l-31.744-31.744 83.456-103.424-38.4-28.16-81.92 101.888c-3.584-1.536-5.12-3.584-8.192-6.656l-14.848-10.24c-3.584-3.584-8.192-5.12-11.776-8.192l-14.848-10.24c-5.12-3.584-8.192-5.12-13.312-6.656-5.12-3.584-10.24-5.12-14.848-8.192-5.12-1.536-8.192-5.12-13.312-6.656-5.12-3.584-11.776-5.12-16.896-8.192-1.536 0-3.584-1.536-5.12-1.536l51.712-118.272-45.056-18.432-45.056 103.424-6.656 16.896h-1.536c-10.24-3.584-18.432-5.12-28.16-8.192-1.536 0-3.584-1.536-6.656-1.536-23.552-5.12-46.592-10.24-70.144-13.312h-2.048c-11.776-1.536-23.552-1.536-33.28-3.584h-1.536V208.384h-48.64v126.976h-6.656c-8.192 0-14.848 1.536-23.552 1.536-3.584 0-8.192 0-11.776 1.536-8.192 1.536-16.896 1.536-25.088 3.584-3.584 0-6.656 1.536-10.24 1.536-10.24 1.536-18.432 3.584-28.16 5.12-1.536 0-5.12 1.536-6.656 1.536-11.776 3.584-23.552 6.656-33.28 10.24l-45.056-121.856-45.056 16.896 18.432 48.64 28.16 73.216c-3.584 1.536-5.12 1.536-8.192 3.584-5.12 1.536-10.24 5.12-14.848 6.656-5.12 1.536-10.24 5.12-14.848 6.656-5.12 3.584-10.24 5.12-14.848 8.192-5.12 3.584-10.24 5.12-13.312 8.192-5.12 3.584-10.24 5.12-14.848 8.192-5.12 3.584-8.192 5.12-13.312 8.192-5.12 3.584-10.24 6.656-13.312 10.24-1.536 1.536-5.12 3.584-6.656 5.12l-81.92-101.888L71.68 368.64l78.336 101.888H148.48c-3.584 3.584-6.656 6.656-11.776 10.24-5.12 3.584-8.192 8.192-13.312 13.312l-6.656 6.656-16.896 16.896v1.536c-14.848 16.896-28.16 33.28-39.936 51.712l-5.12 8.192 5.12 8.192c101.888 141.824 270.336 228.352 452.096 228.352s352.256-84.992 452.096-228.352l5.12-8.704zM512 765.44c-156.672 0-302.08-70.144-393.728-186.88C209.92 456.704 355.328 383.488 512 383.488c156.672 0 302.08 71.68 393.728 195.072h1.536c-93.184 118.784-238.592 186.88-395.264 186.88z m143.36-186.88c0 78.336-63.488 143.36-143.36 143.36-78.336 0-143.36-63.488-143.36-143.36 0-78.336 63.488-143.36 143.36-143.36 78.336 1.536 143.36 65.024 143.36 143.36z m0 0" p-id="1832"></path></svg>