<?xml version="1.0" standalone="no"?><!DOCTYPE svg PUBLIC "-//W3C//DTD SVG 1.1//EN" "http://www.w3.org/Graphics/SVG/1.1/DTD/svg11.dtd" [<!ENTITY nbsp " ">]><svg data-noselect="" viewBox="168 48 465 471" width="465" ref="svg_canvas" height="471" preserveAspectRatio="none" version="1.1" xmlns="http://www.w3.org/2000/svg" style="background: #ffffff;"><g id="shape_LLYMbL3d87" ref="shape_LLYMbL3d87" key="shape_LLYMbL3d87" transform="translate(248,128) rotate(0,152.5,152.5) scale(1,1)" style="cursor:move;display:inline;opacity:1;" filter="">
            <g style="display:inline"><rect fill="rgba(0,0,0,0)" width="325" height="325" x="-10" y="-10"></rect><svg version="1.1" id="图层_1" xmlns="http://www.w3.org/2000/svg" xmlns:xlink="http://www.w3.org/1999/xlink" x="0px" y="0px" width="305" height="305" viewBox="0 0 100 100" enable-background="new 0 0 100 100" xml:space="preserve" shapetype="ellipse" preserveAspectRatio="none" data-parent="shape_LLYMbL3d87">
	 <linearGradient class="" x1="0%" y1="0%" x2="0%" y2="100%" gradientTransform="translate(0.5,0.5) rotate(0) translate(-0.5,-0.5)">
		<stop id="stop1_xAmY6J6Tgg" offset="0%" class="" stop-color="#05a"></stop>
		<stop id="stop2_hljQfB8EmQ" offset="100%" class="" stop-color="#0a5"></stop>
	</linearGradient>

	<radialGradient class="" cx="50%" cy="50%" r="50%" fx="50%" fy="50%">
		<stop offset="0%" class="" stop-color="#05a"></stop>
		<stop offset="100%" class="" stop-color="#0a5"></stop>
	</radialGradient>
	<clipPath id="f_ellipse_utrhanhUJ2" class="">
		<ellipse fill="none" class="" stroke="#dddddd" stroke-width="1" stroke-miterlimit="10" cx="50" cy="50" rx="50" ry="50"></ellipse>
	</clipPath>
	<ellipse class="" fill="#ffd015" opacity="1" cx="50" cy="50" rx="49" ry="49"></ellipse>
	<ellipse class="" fill="none" stroke="#dddddd" stroke-width="0" stroke-miterlimit="10" cx="50" cy="50" rx="50" ry="50" clip-path="url(#f_ellipse_utrhanhUJ2)"></ellipse>
</svg></g>
        </g><g id="shape_IIF9kxcMVF" ref="shape_IIF9kxcMVF" key="shape_IIF9kxcMVF" transform="translate(398.5,301) rotate(270,17,69) scale(-1,-1)" style="cursor:move;display:inline;opacity:1;" filter="">
            <g style="display:inline"><rect fill="rgba(0,0,0,0)" width="54" height="158" x="-10" y="-10"></rect><svg version="1.1" xmlns="http://www.w3.org/2000/svg" xmlns:xlink="http://www.w3.org/1999/xlink" x="-34" y="-138" width="34" height="138" viewBox="0 0 100 100" enable-background="new 0 0 100 100" xml:space="preserve" shapetype="right triangle" preserveAspectRatio="none" data-parent="shape_IIF9kxcMVF">
	 <linearGradient class="" x1="0%" y1="0%" x2="0%" y2="100%" gradientTransform="translate(0.5,0.5) rotate(0) translate(-0.5,-0.5)">
		<stop id="stop1_lzFan9tW31" offset="0%" class="" stop-color="#05a"></stop>
		<stop id="stop2_TDooyQEgqT" offset="100%" class="" stop-color="#0a5"></stop>
	</linearGradient>

	<radialGradient class="" cx="50%" cy="50%" r="50%" fx="50%" fy="50%">
		<stop offset="0%" class="" stop-color="#05a"></stop>
		<stop offset="100%" class="" stop-color="#0a5"></stop>
	</radialGradient>
	<clipPath id="f_right_triangle_VJXHr4QvHF" class="">
		<polygon class="" fill="none" stroke="#dddddd" stroke-width="1" stroke-miterlimit="10" points="0,0 0,100 100,100"></polygon>
	</clipPath>
	<polygon fill="#000000" opacity="1" class="" points="0 1 0 100 99 100" clip-path="url(#f_right_triangle_VJXHr4QvHF)"></polygon>
	<polygon class="" fill="none" stroke="#dddddd" stroke-width="0" stroke-miterlimit="10" points="0,0 0,100 100,100" clip-path="url(#f_right_triangle_VJXHr4QvHF)"></polygon>
</svg></g>
        </g><g id="shape_A2NAxKuRgo" ref="shape_A2NAxKuRgo" key="shape_A2NAxKuRgo" transform="translate(349.5,291.83492279053) rotate(0,118.5,24.78) scale(1,1)" style="cursor:move;display:inline;opacity:1;" filter="">
            <g style="display:inline"><svg xmlns="http://www.w3.org/2000/svg" version="1.1" xmlns:xlink="http://www.w3.org/1999/xlink" overflow="hidden" style="top:0; left: 0" width="99" height="49.56" viewBox="0 0 94 49.56" preserveAspectRatio="none" data-parent="shape_A2NAxKuRgo"><rect fill="rgba(0,0,0,0)" width="99" height="49.56"></rect> <rect opacity="0"></rect><g transform="translate(0 0)" data-width="89"><path fill="#000000" d="M19.49-18.10L19.49-26.96L22.68-26.96L22.68-18.06Q22.68-15.41 22.13-12.56Q21.59-9.70 19.76-6.89Q17.93-4.07 14.30-1.51Q10.67 1.05 4.58 3.19L4.58 3.19Q4.28 2.65 3.68 1.91Q3.07 1.18 2.52 0.63L2.52 0.63Q8.40-1.30 11.87-3.61Q15.33-5.92 16.97-8.40Q18.61-10.88 19.05-13.36Q19.49-15.83 19.49-18.10L19.49-18.10ZM22.26-4.58L22.26-4.58L23.98-6.72Q27.72-5.17 31.73-3.17Q35.74-1.18 38.30 0.55L38.30 0.55L36.46 3.07Q33.98 1.34 30.01-0.80Q26.04-2.94 22.26-4.58ZM7.60-8.27L7.60-32.93L34.61-32.93L34.61-8.36L31.37-8.36L31.37-30.03L10.67-30.03L10.67-8.27L7.60-8.27Z" transform="translate(5 36.96)" data-glyph-w="42"></path><path fill="#000000" d="M22.43-25.24L32.38-25.24L32.38-30.53L22.43-30.53L22.43-25.24ZM22.43-17.26L32.38-17.26L32.38-22.60L22.43-22.60L22.43-17.26ZM19.36-22.60L9.16-22.60L9.16-17.26L19.36-17.26L19.36-22.60ZM19.36-30.53L9.16-30.53L9.16-25.24L19.36-25.24L19.36-30.53ZM6.22-33.31L35.45-33.31L35.45-14.49L6.22-14.49L6.22-33.31ZM26.88-7.73L26.88-7.73L24.74-5.63Q23.31-7.10 20.87-8.78Q18.44-10.46 16.04-11.76L16.04-11.76L18.10-13.65Q20.50-12.47 22.93-10.84Q25.37-9.20 26.88-7.73ZM5.00 1.05L5.00 1.05L2.18-0.42Q3.74-2.44 4.89-5.17Q6.05-7.90 6.76-10.42L6.76-10.42L9.53-9.45Q8.78-6.80 7.67-3.93Q6.55-1.05 5.00 1.05ZM18.06-0.55L18.06-0.55L26.04-0.55Q27.59-0.55 28.06-1.53Q28.52-2.52 28.64-5.92L28.64-5.92Q29.23-5.54 30.05-5.23Q30.87-4.91 31.54-4.75L31.54-4.75Q31.29-0.59 30.22 0.88Q29.15 2.35 26.29 2.35L26.29 2.35L17.85 2.35Q14.49 2.35 13.34 1.47Q12.18 0.59 12.18-1.89L12.18-1.89L12.18-10.21L15.29-10.21L15.29-1.93Q15.29-1.05 15.79-0.80Q16.30-0.55 18.06-0.55ZM31.08-9.74L31.08-9.74L33.85-10.88Q35.74-8.44 37.38-5.65Q39.02-2.86 39.77-0.63L39.77-0.63L36.75 0.71Q36.08-1.47 34.50-4.35Q32.93-7.22 31.08-9.74Z" transform="translate(47 36.96)" data-glyph-w="42"></path></g></svg></g>
        </g><g id="shape_FZyaAYumw5" ref="shape_FZyaAYumw5" key="shape_FZyaAYumw5" transform="translate(318.74100024414,201.77642822266) rotate(0,143.3685,51.35) scale(1,1)" style="cursor:move;display:inline;opacity:1;" filter="">
            <g style="display:inline"><svg xmlns="http://www.w3.org/2000/svg" version="1.1" xmlns:xlink="http://www.w3.org/1999/xlink" overflow="hidden" style="top:0; left: 0" width="160.51799999999997" height="102.7" viewBox="0 0 155.51799999999997 102.7" preserveAspectRatio="none" data-parent="shape_FZyaAYumw5"><rect fill="rgba(0,0,0,0)" width="160.51799999999997" height="102.7"></rect> <rect opacity="0"></rect><g transform="translate(0 0)" data-width="150.51799999999997"><path fill="#000000" d="M36.18-15.40Q36.18-7.98 31.52-3.99Q26.86 0 19.67 0L19.67 0L3.71 0Q3.32 0 3.04-0.28Q2.77-0.55 2.77-0.95L2.77-0.95L2.77-54.35Q2.77-54.75 3.04-55.02Q3.32-55.30 3.71-55.30L3.71-55.30L17.62-55.30Q25.83-55.30 30.53-51.47Q35.23-47.64 35.23-39.97L35.23-39.97Q35.23-32.39 30.26-28.84L30.26-28.84Q29.86-28.60 30.18-28.36L30.18-28.36Q36.18-23.94 36.18-15.40L36.18-15.40ZM16.27-44.08Q15.88-44.08 15.88-43.69L15.88-43.69L15.88-33.58Q15.88-33.18 16.27-33.18L16.27-33.18L17.77-33.18Q19.99-33.18 21.17-34.56Q22.36-35.95 22.36-38.55L22.36-38.55Q22.36-41.24 21.17-42.66Q19.99-44.08 17.77-44.08L17.77-44.08L16.27-44.08ZM18.64-11.30Q20.70-11.30 21.88-12.88Q23.07-14.46 23.07-17.38L23.07-17.38Q23.07-20.30 21.88-22.04Q20.70-23.78 18.72-23.78L18.72-23.78L16.27-23.78Q15.88-23.78 15.88-23.38L15.88-23.38L15.88-11.69Q15.88-11.30 16.27-11.30L16.27-11.30L18.64-11.30Z" transform="translate(5 79)" data-glyph-w="37.683"></path><path fill="#000000" d="M33.10-45.03Q33.10-44.63 32.82-44.36Q32.55-44.08 32.15-44.08L32.15-44.08L16.27-44.08Q15.88-44.08 15.88-43.69L15.88-43.69L15.88-33.73Q15.88-33.34 16.27-33.34L16.27-33.34L24.96-33.34Q25.36-33.34 25.64-33.06Q25.91-32.79 25.91-32.39L25.91-32.39L25.91-22.99Q25.91-22.59 25.64-22.32Q25.36-22.04 24.96-22.04L24.96-22.04L16.27-22.04Q15.88-22.04 15.88-21.65L15.88-21.65L15.88-11.61Q15.88-11.22 16.27-11.22L16.27-11.22L32.15-11.22Q32.55-11.22 32.82-10.94Q33.10-10.67 33.10-10.27L33.10-10.27L33.10-0.95Q33.10-0.55 32.82-0.28Q32.55 0 32.15 0L32.15 0L3.71 0Q3.32 0 3.04-0.28Q2.77-0.55 2.77-0.95L2.77-0.95L2.77-54.35Q2.77-54.75 3.04-55.02Q3.32-55.30 3.71-55.30L3.71-55.30L32.15-55.30Q32.55-55.30 32.82-55.02Q33.10-54.75 33.10-54.35L33.10-54.35L33.10-45.03Z" transform="translate(42.683 79)" data-glyph-w="34.839"></path><path fill="#000000" d="M3.71 0Q3.32 0 3.04-0.28Q2.77-0.55 2.77-0.95L2.77-0.95L2.77-54.35Q2.77-54.75 3.04-55.02Q3.32-55.30 3.71-55.30L3.71-55.30L14.93-55.30Q15.33-55.30 15.60-55.02Q15.88-54.75 15.88-54.35L15.88-54.35L15.88-0.95Q15.88-0.55 15.60-0.28Q15.33 0 14.93 0L14.93 0L3.71 0Z" transform="translate(77.52199999999999 79)" data-glyph-w="18.565"></path><path fill="#000000" d="M18.17 0.63Q13.35 0.63 9.72-1.22Q6.08-3.08 4.07-6.44Q2.05-9.80 2.05-14.06L2.05-14.06L2.05-16.51Q2.05-16.91 2.33-17.18Q2.61-17.46 3.00-17.46L3.00-17.46L14.06-17.46Q14.46-17.46 14.73-17.18Q15.01-16.91 15.01-16.51L15.01-16.51L15.01-14.69Q15.01-12.80 15.92-11.69Q16.83-10.59 18.25-10.59L18.25-10.59Q19.67-10.59 20.58-11.65Q21.49-12.72 21.49-14.38L21.49-14.38Q21.49-16.20 20.07-17.66Q18.64-19.12 14.38-22.20L14.38-22.20Q10.43-25.04 7.90-27.29Q5.37-29.55 3.56-32.90Q1.74-36.26 1.74-40.69L1.74-40.69Q1.74-45.19 3.75-48.66Q5.77-52.14 9.44-54.04Q13.11-55.93 17.85-55.93L17.85-55.93Q22.67-55.93 26.35-54.00Q30.02-52.06 32.03-48.55Q34.05-45.03 34.05-40.45L34.05-40.45L34.05-38.55Q34.05-38.16 33.77-37.88Q33.50-37.60 33.10-37.60L33.10-37.60L22.12-37.60Q21.73-37.60 21.45-37.88Q21.17-38.16 21.17-38.55L21.17-38.55L21.17-40.76Q21.17-42.50 20.22-43.61Q19.28-44.71 17.85-44.71L17.85-44.71Q16.43-44.71 15.56-43.61Q14.69-42.50 14.69-40.69L14.69-40.69Q14.69-38.71 16.04-37.13Q17.38-35.55 21.49-32.55L21.49-32.55Q26.46-28.84 28.99-26.54Q31.52-24.25 32.94-21.45Q34.37-18.64 34.37-14.85L34.37-14.85Q34.37-7.74 29.90-3.56Q25.44 0.63 18.17 0.63L18.17 0.63Z" transform="translate(96.08699999999999 79)" data-glyph-w="35.866"></path><path fill="#000000" d="M3.71 0Q3.32 0 3.04-0.28Q2.77-0.55 2.77-0.95L2.77-0.95L2.77-54.35Q2.77-54.75 3.04-55.02Q3.32-55.30 3.71-55.30L3.71-55.30L14.93-55.30Q15.33-55.30 15.60-55.02Q15.88-54.75 15.88-54.35L15.88-54.35L15.88-0.95Q15.88-0.55 15.60-0.28Q15.33 0 14.93 0L14.93 0L3.71 0Z" transform="translate(131.95299999999997 79)" data-glyph-w="18.565"></path></g></svg></g>
        </g></svg>