<svg t="1601371349973" class="icon" viewBox="0 0 1137 1024" version="1.1" xmlns="http://www.w3.org/2000/svg" p-id="1386" width="200" height="200"><path d="M855.867 536.56a221.067 221.067 0 1 1 0 442.107 221.067 221.067 0 0 1 0-442.107z m0 53.333a167.733 167.733 0 1 0 0 335.44 167.733 167.733 0 0 0 0-335.44z" p-id="1387"></path><path d="M855.867 730.933a26.667 26.667 0 0 1 26.48 23.574l0.186 3.12v73.68a26.667 26.667 0 0 1-53.173 3.093l-0.16-3.093V757.6a26.667 26.667 0 0 1 26.667-26.667zM192.693 594.8a40 40 0 0 1 39.814 36.16l0.186 3.84v188.08a66.667 66.667 0 0 0 62.294 66.533l4.373 0.134h286.32a40 40 0 0 1 3.867 79.813l-3.867 0.187H299.36a146.667 146.667 0 0 1-146.533-140.774l-0.134-5.893V634.8a40 40 0 0 1 40-40z" p-id="1388"></path><path d="M811.173 45.333c42.534 0 81.04 24.107 99.014 61.494l2.32 5.2L1045.84 432.08l2.587 10.667a173.173 173.173 0 0 1-6.827 96.8 293.813 293.813 0 0 0-64.08-40.454c2.213-11.413 2.507-23.04 0.907-34.08l-1.174-6.533-1.12-4.533-131.2-314.934a36.32 36.32 0 0 0-26.746-21.6l-3.627-0.506-3.387-0.134H277.067c-13.92 0-26.507 7.734-32.64 19.76l-1.494 3.387L122.4 453.973l-1.013 3.867c-13.334 55.84 17.68 112.56 71.813 132.987l5.307 1.866 5.12 1.547a119.493 119.493 0 0 0 66.826-0.933l6.454-2.187 140.16-51.973 16.613 20.16c44.427 54 120.8 68 181.227 36.88a290.987 290.987 0 0 0-41.867 86.24 222 222 0 0 1-166.853-48.88l-6.32-5.44-4.8-4.427-92.32 34.24a193.867 193.867 0 0 1-102.534 8.827l-8.533-1.76-7.867-2C84.88 635.653 26.48 536.507 50.853 439.52l1.68-6.16 0.96-2.88L174.64 114.8c15.36-40.053 53.493-67.147 96.747-69.333l5.68-0.134H811.2zM829.2 683.92a26.667 26.667 0 1 0 53.333 0 26.667 26.667 0 1 0-53.333 0z" p-id="1389"></path></svg>